<svg width="64.000000" height="64.000031" viewBox="0 0 64 64" fill="none" xmlns="http://www.w3.org/2000/svg">
	<desc>
			Created with Pixso.
	</desc>
	<defs>
		<clipPath id="clip4090_37">
			<rect width="48.000000" height="48.000000" transform="translate(8.000000 8.000031)" fill="white" fill-opacity="0"/>
		</clipPath>
	</defs>
	<circle cx="32.000000" cy="32.000031" r="32.000000" fill="#0CB673" fill-opacity="0.300000"/>
	<rect width="48.000000" height="48.000000" transform="translate(8.000000 8.000031)" fill="#FFFFFF" fill-opacity="0"/>
	<g clip-path="url(#clip4090_37)">
		<path d="M46.2827 18.0001C49.8193 21.6076 52 26.5492 52 32C52 37.5156 49.7671 42.5098 46.1565 46.128M18 46.283C14.2974 42.653 12 37.5948 12 32C12 26.47 14.2444 21.4642 17.8721 17.8438" stroke="#253053" stroke-opacity="1.000000" stroke-width="2.000000" stroke-linejoin="round"/>
		<path d="M40.5698 24.088C42.6917 26.1176 44 28.8976 44 31.9644C44 35.0676 42.6604 37.8772 40.4939 39.9128M23.6001 40C21.3784 37.9578 20 35.112 20 31.9644C20 28.8532 21.3467 26.0369 23.5232 24" stroke="#253053" stroke-opacity="1.000000" stroke-width="2.000000" stroke-linejoin="round"/>
		<path d="M38 32C38 33.1248 37.1042 33.7824 35.3125 35.0978C34.8181 35.4608 34.3276 35.8028 33.8767 36.0876C33.4814 36.3376 33.0337 36.596 32.5698 36.8498C30.7827 37.828 29.8889 38.3172 29.0874 37.7756C28.2859 37.234 28.2129 36.1004 28.0674 33.8332C28.0261 33.192 28 32.5634 28 32C28 31.4366 28.0261 30.808 28.0674 30.1668C28.2129 27.8996 28.2859 26.766 29.0874 26.2244C29.8889 25.6829 30.7827 26.172 32.5698 27.1502C33.0337 27.404 33.4814 27.6625 33.8767 27.9124C34.3276 28.1972 34.8181 28.5392 35.3125 28.9022C37.1042 30.2176 38 30.8752 38 32Z" stroke="#253053" stroke-opacity="1.000000" stroke-width="2.000000"/>
	</g>
</svg>
