<svg width="54.000000" height="49.443756" viewBox="0 0 54 49.4438" fill="none" xmlns="http://www.w3.org/2000/svg">
	<desc>
			Created with Pixso.
	</desc>
	<defs>
		<clipPath id="clip4090_32">
			<rect width="32.000000" height="29.300003" transform="translate(10.000000 10.071899)" fill="white" fill-opacity="0"/>
		</clipPath>
	</defs>
	<ellipse cx="27.000000" cy="24.721863" rx="27.000000" ry="24.721878" fill="#0CB673" fill-opacity="0.300000"/>
	<rect width="32.000000" height="29.300003" transform="translate(10.000000 10.071899)" fill="#FFFFFF" fill-opacity="0"/>
	<g clip-path="url(#clip4090_32)">
		<path d="M27.3335 28.6671L35.4624 34.1121C37.1992 35.2074 39.3333 33.7818 39.3333 31.5265L39.3333 28.3844M27.3335 20.7767L35.4624 15.3317C37.1992 14.2364 39.3333 15.662 39.3333 17.9174L39.3333 23.5011" stroke="#253053" stroke-opacity="1.000000" stroke-width="2.000000"/>
		<path d="M18.8401 19.4825L23.7852 16.5055C25.377 15.5471 27.3335 16.7945 27.3335 18.7679L27.3335 30.6759C27.3335 32.6493 25.377 33.8967 23.7852 32.9384L13.8953 26.9844C12.2573 25.9983 12.2573 23.4455 13.8953 22.4595L15.1313 21.7152" stroke="#253053" stroke-opacity="1.000000" stroke-width="2.000000" stroke-linecap="round"/>
	</g>
</svg>
