<svg width="24.000000" height="24.000000" viewBox="0 0 24 24" fill="none" xmlns="http://www.w3.org/2000/svg">
	<desc>
			Created with Pixso.
	</desc>
	<defs>
		<clipPath id="clip4090_13">
			<rect width="24.000000" height="24.000000" fill="white" fill-opacity="0"/>
		</clipPath>
	</defs>
	<rect width="24.000000" height="24.000000" fill="#FFFFFF" fill-opacity="0"/>
	<g clip-path="url(#clip4090_13)">
		<path d="M15.5 11.9998C15.5 12.5317 15.4646 13.4879 15.4128 14.6052C15.2727 17.6226 15.2024 19.1313 14.2798 19.7797C14.1028 19.9041 13.9048 20.0049 13.7002 20.0747C12.7327 20.4048 11.5977 19.747 9.5 18.3725M7.01636 17.0417C6.76831 16.9998 6.51221 16.9998 6.00024 16.9998C4.62622 16.9998 3.93921 16.9998 3.34009 16.7225C2.79248 16.4692 2.24487 15.9539 1.95874 15.4228C1.64551 14.8414 1.60864 14.237 1.53491 13.0282C1.52393 12.849 1.51514 12.6722 1.50928 12.4998M1.95874 8.57678C2.24487 8.04562 2.79248 7.53043 3.34009 7.27707C3.93921 6.99979 4.62622 6.99979 6.00024 6.99979C6.51221 6.99979 6.76831 6.99979 7.01636 6.95792C7.26147 6.9165 7.50049 6.84479 7.72803 6.74438C7.95825 6.64282 8.17188 6.50189 8.59937 6.22003L8.81836 6.07565C11.3613 4.39899 12.6328 3.56064 13.7002 3.92487C13.9048 3.99469 14.1028 4.09552 14.2798 4.21985C15.115 4.80685 15.2517 6.09882 15.374 8.57678" stroke="#253053" stroke-opacity="1.000000" stroke-width="1.000000"/>
		<path d="M20 18C20 18 21.5 16.2 21.5 12C21.5 9.56659 20.9966 7.93881 20.573 7" stroke="#253053" stroke-opacity="1.000000" stroke-width="1.000000" stroke-linecap="round"/>
		<path d="M18 15C18 15 18.5 14.1 18.5 12C18.5 11.1381 18.4158 10.4784 18.3164 10" stroke="#253053" stroke-opacity="1.000000" stroke-width="1.000000" stroke-linecap="round"/>
		<path d="M22 2L2 22" stroke="#253053" stroke-opacity="1.000000" stroke-width="1.000000" stroke-linecap="round"/>
	</g>
</svg>
